<svg id="cake_black" xmlns="http://www.w3.org/2000/svg" width="24" height="24" viewBox="0 0 24 24">
  <path id="Path_37882" data-name="Path 37882" d="M0,0H24V24H0Z" fill="none"/>
  <path id="Path_37883" data-name="Path 37883" d="M12,6a2,2,0,0,0,2-2,1.9,1.9,0,0,0-.29-1.03L12,0,10.29,2.97A1.9,1.9,0,0,0,10,4,2.006,2.006,0,0,0,12,6Zm6,3H13V7H11V9H6a3,3,0,0,0-3,3v9a1,1,0,0,0,1,1H20a1,1,0,0,0,1-1V12A3,3,0,0,0,18,9Zm1,11H5V17a3.444,3.444,0,0,0,2.4-1.01l1.09-1.07,1.07,1.07a3.543,3.543,0,0,0,4.89,0l1.08-1.07,1.07,1.07A3.444,3.444,0,0,0,19,17v3Zm0-4.5a1.909,1.909,0,0,1-1.35-.57L15.52,12.8l-2.14,2.13a2.006,2.006,0,0,1-2.77,0L8.48,12.8,6.34,14.93A1.909,1.909,0,0,1,5,15.5V12a1,1,0,0,1,1-1H18a1,1,0,0,1,1,1Z" fill="#737373"/>
</svg>
