<svg xmlns="http://www.w3.org/2000/svg" width="24" height="24" viewBox="0 0 24 24">
  <g id="Gender" transform="translate(-0.01)">
    <path id="Path_37884" data-name="Path 37884" d="M.01,0h24V24H.01V0Z" fill="none"/>
    <path id="Path_37885" data-name="Path 37885" d="M5.5,22V14.5H4V9A2.006,2.006,0,0,1,6,7H9a2.006,2.006,0,0,1,2,2v5.5H9.5V22ZM18,22V16h3L18.46,8.37A2.009,2.009,0,0,0,16.56,7h-.12a2,2,0,0,0-1.9,1.37L12,16h3v6ZM7.5,6a2,2,0,1,0-2-2A1.993,1.993,0,0,0,7.5,6Zm9,0a2,2,0,1,0-2-2A1.993,1.993,0,0,0,16.5,6Z" fill="#737373"/>
  </g>
</svg>
