<?xml version="1.0" encoding="UTF-8"?>
<svg version="1.1" xmlns="http://www.w3.org/2000/svg" width="30" height="30">
<path d="M0 0 C1.31291016 -0.02513672 1.31291016 -0.02513672 2.65234375 -0.05078125 C5.0625 0.3125 5.0625 0.3125 6.84765625 1.6171875 C8.93009674 4.52322985 8.54459205 6.87759411 8.0625 10.3125 C5.625 12.625 5.625 12.625 3.0625 14.3125 C2.7325 14.9725 2.4025 15.6325 2.0625 16.3125 C0.4125 16.3125 -1.2375 16.3125 -2.9375 16.3125 C-3.1875 14 -3.1875 14 -2.9375 11.3125 C-1 9.6875 -1 9.6875 1.0625 8.3125 C1.3925 7.3225 1.7225 6.3325 2.0625 5.3125 C-0.69391416 5.81006092 -0.69391416 5.81006092 -2.9375 7.3125 C-4.60367115 7.35313832 -6.27138095 7.355221 -7.9375 7.3125 C-7.04123999 1.63618659 -5.83606564 0.02570954 0 0 Z " fill="#9B9B9B" transform="translate(14.9375,2.6875)"/>
<path d="M0 0 C1.2065625 0.0309375 1.2065625 0.0309375 2.4375 0.0625 C3 2 3 2 3.4375 4.0625 C2.4375 5.0625 2.4375 5.0625 -0.125 5.125 C-1.3315625 5.0940625 -1.3315625 5.0940625 -2.5625 5.0625 C-3.125 3.125 -3.125 3.125 -3.5625 1.0625 C-2.5625 0.0625 -2.5625 0.0625 0 0 Z " fill="#9B9B9B" transform="translate(14.5625,21.9375)"/>
</svg>
