<svg id="my-profile" xmlns="http://www.w3.org/2000/svg" width="24" height="24" viewBox="0 0 24 24">
  <path id="Path_37809" data-name="Path 37809" d="M0,0H24V24H0Z" fill="none"/>
  <path id="Path_37810" data-name="Path 37810" d="M11,2a9,9,0,1,0,9,9A9,9,0,0,0,11,2ZM6.563,16.652c.387-.81,2.745-1.6,4.437-1.6s4.059.792,4.437,1.6a7.133,7.133,0,0,1-8.874,0Zm10.161-1.305c-1.287-1.566-4.41-2.1-5.724-2.1s-4.437.531-5.724,2.1a7.2,7.2,0,1,1,11.448,0ZM11,5.6a3.15,3.15,0,1,0,3.15,3.15A3.142,3.142,0,0,0,11,5.6Zm0,4.5a1.35,1.35,0,1,1,1.35-1.35A1.348,1.348,0,0,1,11,10.1Z" transform="translate(1)" fill="#737373"/>
</svg>
