<svg id="Group_20352" data-name="Group 20352" xmlns="http://www.w3.org/2000/svg" xmlns:xlink="http://www.w3.org/1999/xlink" width="122.102" height="60" viewBox="0 0 122.102 60">
  <defs>
    <clipPath id="clip-path">
      <rect id="Rectangle_4636" data-name="Rectangle 4636" width="122.102" height="60" fill="none"/>
    </clipPath>
    <clipPath id="clip-path-3">
      <rect id="Rectangle_4633" data-name="Rectangle 4633" width="14.14" height="15.669" fill="none"/>
    </clipPath>
    <clipPath id="clip-path-4">
      <rect id="Rectangle_4634" data-name="Rectangle 4634" width="10.51" height="15.669" fill="none"/>
    </clipPath>
  </defs>
  <g id="Group_20351" data-name="Group 20351" clip-path="url(#clip-path)">
    <g id="Group_20350" data-name="Group 20350">
      <g id="Group_20349" data-name="Group 20349" clip-path="url(#clip-path)">
        <path id="Path_37959" data-name="Path 37959" d="M92.1,0c-3.6,0-6.948.995-10.257,1.8C67.823,5.213,53.015,4.578,38.907,1.345A39.6,39.6,0,0,0,30,0a30,30,0,1,0,0,60,39.612,39.612,0,0,0,8.907-1.344c14.108-3.233,28.915-3.869,42.938-.456C85.154,59.005,88.5,60,92.1,60a30,30,0,0,0,0-60m24.076,35.793c-1.688,0-3.057-2.594-3.057-5.793s1.369-5.793,3.057-5.793S119.236,26.8,119.236,30s-1.369,5.793-3.057,5.793" fill="#3ca2ab"/>
        <path id="Path_37960" data-name="Path 37960" d="M181.8,91.895a14.835,14.835,0,0,1,2.517-8.289A19.188,19.188,0,0,0,167,72.708h-56.6a19.187,19.187,0,1,0,0,38.373H167a19.188,19.188,0,0,0,17.308-10.9,14.835,14.835,0,0,1-2.517-8.289" transform="translate(-77.655 -61.895)" fill="#e5e5e5"/>
        <path id="Path_37961" data-name="Path 37961" d="M150.328,154.383v1.177a7.888,7.888,0,1,1-3.32,0v-1.177a9.043,9.043,0,1,0,3.32,0" transform="translate(-118.859 -131.423)" fill="#002770"/>
        <path id="Path_37962" data-name="Path 37962" d="M194.034,139.189h-1.457a.517.517,0,0,1-.517-.517V129a.517.517,0,0,1,.517-.517h1.457a.517.517,0,0,1,.517.517v9.673a.517.517,0,0,1-.517.517" transform="translate(-163.497 -109.374)" fill="#002770"/>
        <path id="Path_37963" data-name="Path 37963" d="M376.365,164.2H328.956a1.327,1.327,0,0,1-1.327-1.327V149.637a1.327,1.327,0,0,1,1.327-1.327h47.409a1.327,1.327,0,0,1,1.327,1.327v13.231a1.327,1.327,0,0,1-1.327,1.327" transform="translate(-278.903 -126.253)" fill="#efc940"/>
        <path id="Path_37964" data-name="Path 37964" d="M375.987,148.31H329.335a1.705,1.705,0,0,0-1.706,1.705v.764a1.705,1.705,0,0,1,1.706-1.706h46.653a1.705,1.705,0,0,1,1.705,1.706v-.764a1.705,1.705,0,0,0-1.705-1.705" transform="translate(-278.903 -126.253)" fill="#8bc363"/>
        <path id="Path_37965" data-name="Path 37965" d="M399.449,184.581a2.861,2.861,0,1,1-3.514-2.007,2.861,2.861,0,0,1,3.514,2.007" transform="translate(-335.255 -155.334)" fill="#1a1a1a"/>
        <path id="Path_37966" data-name="Path 37966" d="M454.7,184.581a2.861,2.861,0,1,1-3.514-2.007,2.861,2.861,0,0,1,3.514,2.007" transform="translate(-382.285 -155.334)" fill="#1a1a1a"/>
        <path id="Path_37967" data-name="Path 37967" d="M509.943,184.581a2.861,2.861,0,1,1-3.514-2.007,2.861,2.861,0,0,1,3.514,2.007" transform="translate(-429.316 -155.334)" fill="#1a1a1a"/>
        <path id="Path_37968" data-name="Path 37968" d="M565.19,184.581a2.861,2.861,0,1,1-3.514-2.007,2.862,2.862,0,0,1,3.514,2.007" transform="translate(-476.346 -155.334)" fill="#1a1a1a"/>
        <g id="Group_20345" data-name="Group 20345" transform="translate(50.255 22.166)" opacity="0.15" style="mix-blend-mode: overlay;isolation: isolate">
          <g id="Group_20344" data-name="Group 20344">
            <g id="Group_20343" data-name="Group 20343" clip-path="url(#clip-path-3)">
              <path id="Path_37969" data-name="Path 37969" d="M344.574,149.039h7.474l-6.5,15.669h-7.643Z" transform="translate(-337.908 -149.039)" fill="#fff"/>
            </g>
          </g>
        </g>
        <g id="Group_20348" data-name="Group 20348" transform="translate(59.618 22.166)" opacity="0.15" style="mix-blend-mode: overlay;isolation: isolate">
          <g id="Group_20347" data-name="Group 20347">
            <g id="Group_20346" data-name="Group 20346" clip-path="url(#clip-path-4)">
              <path id="Path_37970" data-name="Path 37970" d="M407.552,149.039h3.822l-6.5,15.669h-4.013Z" transform="translate(-400.864 -149.039)" fill="#fff"/>
            </g>
          </g>
        </g>
      </g>
    </g>
  </g>
</svg>
