<svg xmlns="http://www.w3.org/2000/svg" width="86.896" height="80" viewBox="0 0 86.896 80">
  <path id="Personal" d="M.8,28.043h.791V34.8a.681.681,0,1,0,1.362,0V26.76L5.222,25.24,7.491,26.76V34.8a.681.681,0,1,0,1.362,0V28.068h.794a.681.681,0,0,0,.568-.306.688.688,0,0,0-.19-.948L5.908,24.051v-2.6a.681.681,0,1,0-1.362,0v2.6L.428,26.813a.69.69,0,0,0-.188.952.667.667,0,0,0,.562.279Zm29.4.794a11.725,11.725,0,0,1-.708-4.418c0-3.774,5.163-9.494,13.8-12.534l.262-.092.259.093c8.637,3.036,13.8,8.757,13.8,12.531a13.093,13.093,0,0,1-.466,3.71q.607.42,1.154.882a13.731,13.731,0,0,0,.672-4.592c0-4.775-6.116-10.642-14.226-13.641l-.52-.193V.685a.681.681,0,0,0-1.362,0v9.9l-.52.193c-8.11,3-14.226,8.866-14.226,13.641a12.224,12.224,0,0,0,1,5.377q.507-.5,1.075-.96Zm47.266-.794h.793V34.8a.681.681,0,0,0,1.362,0V26.76l2.267-1.519,2.268,1.519V34.8a.681.681,0,1,0,1.362,0V28.068h.794a.686.686,0,0,0,.378-1.255L82.576,24.05v-2.6a.681.681,0,1,0-1.362,0v2.6l-4.121,2.762a.687.687,0,0,0-.188.951.662.662,0,0,0,.566.28ZM56.4,62.021c.475.084.945.186,1.411.315a6.782,6.782,0,0,1,1.545-1.293l.423-.27.424.269A5.032,5.032,0,0,1,62,62.713l.045.13v1.476q.7.488,1.362,1.016V62.98c0-1.812-2.771-3.3-3.326-3.58a.681.681,0,0,0-.61,0A7.652,7.652,0,0,0,56.4,62.021Zm-31.336.9.035-.116c.2-.656,1.223-1.388,1.815-1.766l.423-.271.425.27a5.376,5.376,0,0,1,1.763,1.6c.428-.15.861-.276,1.3-.388-.575-1.476-2.7-2.615-3.179-2.856a.682.682,0,0,0-.609,0c-.554.279-3.325,1.767-3.325,3.579v3.38c.028-.029.051-.061.078-.089l.263-.241c.329-.287.673-.558,1.018-.828ZM19.173,61.5a.681.681,0,1,0-1.362,0v6.731H14.749V39.933H25.977a10.189,10.189,0,0,1-.233-1.37h-6.4l.912-1.266a9.955,9.955,0,0,1,4.334-3.325.693.693,0,0,0,.485-.657V27.383a.681.681,0,0,0-1.362,0v5.455l-.445.219A10.733,10.733,0,0,0,18.23,38.1l-.212.466H14.749V36.282a.681.681,0,1,0-1.362,0V68.228H8.851V54.765h.793a.685.685,0,0,0,0-1.37H.8a.685.685,0,0,0,0,1.37h.794V68.226H.8a.685.685,0,0,0,0,1.37H21.3a15.092,15.092,0,0,1,.859-1.369H19.172V61.5ZM7.489,68.228H2.953V54.765H7.489V68.226Zm78.832,0h-.794V54.765h.794a.685.685,0,0,0,0-1.37H77.471a.685.685,0,0,0,0,1.37h.793V68.226H73.731V36.282a.681.681,0,1,0-1.362,0v2.281H69.1l-.212-.466a10.713,10.713,0,0,0-5.033-5.041l-.444-.218V27.383a.681.681,0,1,0-1.362,0v5.933a.686.686,0,0,0,.466.65A9.787,9.787,0,0,1,66.875,37.3l.9,1.263H62.561a10.2,10.2,0,0,1-.233,1.37H72.37V68.228H69.308V61.5a.681.681,0,1,0-1.362,0v6.731H66.139A15.147,15.147,0,0,1,67,69.6H86.322a.687.687,0,1,0,0-1.373Zm-2.156,0H79.63V54.765h4.536V68.226ZM.8,39.933h.794v9.7a.681.681,0,1,0,1.362,0v-9.7H7.488v9.7a.681.681,0,0,0,1.362,0v-9.7h.793a.685.685,0,0,0,0-1.37H.8a.685.685,0,0,0,0,1.37Zm17.012,6.731v7.417a.681.681,0,1,0,1.362,0V46.665a.681.681,0,1,0-1.357,0Zm5.9,1.483v5.934a.681.681,0,1,0,1.362,0l-.008-5.987.035-.116c.2-.657,1.223-1.389,1.815-1.766l.423-.27.388.248a8.017,8.017,0,0,1,.466-1.321c-.245-.144-.444-.248-.554-.3a.684.684,0,0,0-.61,0c-.547.282-3.317,1.77-3.317,3.583ZM62,47.882l.045.129v6.07a.681.681,0,1,0,1.362,0V48.148c0-1.814-2.771-3.3-3.326-3.58a.647.647,0,0,0-.109-.026l-.008.01a8.056,8.056,0,0,1,.7,1.969A3.83,3.83,0,0,1,62,47.883Zm7.306,6.2V46.665a.681.681,0,0,0-1.362,0v7.416a.681.681,0,1,0,1.361,0Zm8.162-14.147h.793v9.7a.681.681,0,0,0,1.362,0v-9.7h4.536v9.7a.681.681,0,1,0,1.362,0v-9.7h.794a.685.685,0,0,0,0-1.37H77.471a.685.685,0,0,0,0,1.37ZM63.018,73.6A9.9,9.9,0,0,0,61.7,71.19a10.021,10.021,0,0,0-.655-.8c-.1-.11-.191-.225-.3-.331-.184-.159-.382-.311-.576-.466-.5-.405-1.025-.8-1.569-1.161l-.078-.05c-.1-.055-.2-.107-.3-.16-.225-.117-.458-.233-.7-.331l-.022,0a9.93,9.93,0,0,0-1.361-.437c-.263-.066-.527-.122-.794-.165a9.959,9.959,0,0,0-1.571-.143h-.155L52.4,65.918l-.794-.8-.981-.987v-.155a19.047,19.047,0,0,1,.135-2.313,27.489,27.489,0,0,1,.457-2.711l.022-.1.068-.078c.1-.115.2-.233.3-.358a6.941,6.941,0,0,0,1.435-3.555.088.088,0,0,1,0-.031l.048-.457.1.03.332.1a1.063,1.063,0,0,0,.241.04,1.01,1.01,0,0,0,.311-.056,1.165,1.165,0,0,0,.484-.336,4.175,4.175,0,0,0,.786-2.02,19.015,19.015,0,0,0,.233-3.2,5.463,5.463,0,0,0-.155-1.4,1.8,1.8,0,0,0-.523-.917,1.115,1.115,0,0,0-.265-.177,1.08,1.08,0,0,0-.435-.09h-.43l.057-.419v-.012a7.069,7.069,0,0,0-.145-2.681l-.068-.259.228-.147a9.636,9.636,0,0,0,1.616-1.305,7.389,7.389,0,0,0,.687-.8,6.214,6.214,0,0,0,.509-.8,5.176,5.176,0,0,0,.5-1.37,4.7,4.7,0,0,0,.1-.8c0-.054.012-.107.012-.162a4.88,4.88,0,0,0-.053-.637,5.481,5.481,0,0,0-1.113-2.6A8.385,8.385,0,0,0,54.3,32.631c-.04-.029-.087-.055-.128-.084a11.852,11.852,0,0,0-1.181-.715,14.465,14.465,0,0,0-1.781-.8,21.5,21.5,0,0,0-14.111,0,14.453,14.453,0,0,0-1.781.8,11.787,11.787,0,0,0-1.31.8l-.03.022a9.452,9.452,0,0,0-.823.672,7.137,7.137,0,0,0-1.39,1.7,5.115,5.115,0,0,0-.732,2.581c0,.054.011.107.012.162a4.706,4.706,0,0,0,.1.8,5.185,5.185,0,0,0,.5,1.37,6.233,6.233,0,0,0,.509.8,7.4,7.4,0,0,0,.686.8,9.663,9.663,0,0,0,1.616,1.307l.117.078.11.071-.065.263a7.089,7.089,0,0,0-.143,2.679v.008l.058.424H34.1a.73.73,0,0,0-.179.016,1.184,1.184,0,0,0-.263.078c-.938.423-.938,1.978-.938,2.486,0,2.1.219,4.637,1.2,5.381a1.059,1.059,0,0,0,.3.168,1.046,1.046,0,0,0,.334.056,1.131,1.131,0,0,0,.16-.029c.022,0,.04,0,.061-.011l.437-.128.043.457a.081.081,0,0,0,0,.03,6.767,6.767,0,0,0,.248,1.248,6.851,6.851,0,0,0,1.362,2.517c.042.049.078.1.125.149l.068.078.022.1a27.531,27.531,0,0,1,.457,2.719c.073.607.109,1.222.122,1.837,0,.155.014.311.013.471v.155l-.013.013-.8.792L35.5,66.311l-.793.8-.035.035h-.155a10.326,10.326,0,0,0-3.553.684c-.065.026-.133.044-.2.071a8.8,8.8,0,0,0-1.01.5l-.063.039c-.539.357-1.06.75-1.566,1.159-.2.161-.4.316-.594.483-.1.1-.186.211-.28.315a9.807,9.807,0,0,0-.652.8,10.063,10.063,0,0,0-1.336,2.459L24.16,77.136a2.175,2.175,0,0,0,1.4,2.724,2.149,2.149,0,0,0,.655.1l16.947.019A.461.461,0,0,0,43.31,80H45a.374.374,0,0,0,.127-.022l.123-.02H62.09a2.135,2.135,0,0,0,1.524-.635,2.161,2.161,0,0,0,.632-1.533,2.187,2.187,0,0,0-.1-.66ZM51.612,66.444l.794.8.185.186.155.155L52,68.227l-1.136.978-.233-.148a12.392,12.392,0,0,0-2.874-1.316c-.041-.012-.078-.029-.123-.041l-.669-.2.086-.078.21-.181.715-.618.688-.593.793-.684.578-.5.216.217Zm-5.015.138-.057.049-.777.67-.165-.02a12.11,12.11,0,0,0-2.9,0l-.165.02-.777-.669-.057-.049-3.1-2.676v-.172a20.3,20.3,0,0,0-.137-2.175l-.012-.106L38.3,60.288l.148.138.61.569c.579.544,1.1,1,1.639,1.436a5.4,5.4,0,0,0,1.531.868,5.5,5.5,0,0,0,3.841,0,5.4,5.4,0,0,0,1.529-.867c.351-.286.7-.591,1.061-.913.19-.17.378-.336.579-.524l.215-.2L50,60.29l-.155,1.262a20.326,20.326,0,0,0-.137,2.183v.172l-.243.21-.793.684Zm7.361-19.25.364-.149.135.37a4.549,4.549,0,0,1,.2,1.414c0,.83-.036,1.509-.091,2.069a6.137,6.137,0,0,1-.535,2.306l-.229.4-.346-.3a3,3,0,0,1-.252-.272c-.053-.059-.113-.11-.162-.174l-.073-.1v-.121a19.9,19.9,0,0,1,.238-3.687c.07-.444.155-.885.253-1.321l.03-.131.106-.082a1.586,1.586,0,0,1,.366-.22Zm-2.01-3.849a6.018,6.018,0,0,1-.69.376,9.879,9.879,0,0,1-1.273.487c-.227.071-.456.141-.708.2l-.078.018c-.27.066-.559.127-.854.183a22.479,22.479,0,0,1-4.195.368,21.677,21.677,0,0,1-5.123-.583h-.015q-.457-.114-.872-.247c-.276-.089-.538-.183-.781-.284a6.054,6.054,0,0,1-1.2-.641l-.016-.009-.621-.451-.322-.233H53.1l-.489.356-.454.33c-.061.038-.143.082-.212.127ZM34.873,41.725a.5.5,0,0,0-.092.023l-.187.064-.155-.118c-.141-.1-.267-.211-.4-.318a7.715,7.715,0,0,1-.7-.654c-.065-.069-.12-.141-.181-.211h0a5.805,5.805,0,0,1-.438-.577,4.515,4.515,0,0,1-.621-1.37,3.862,3.862,0,0,1-.129-.959,4.039,4.039,0,0,1,.591-2.052,6.137,6.137,0,0,1,1.058-1.309q.287-.275.616-.535c.206-.162.422-.32.651-.472a11.711,11.711,0,0,1,1.046-.606,14.425,14.425,0,0,1,1.855-.8,18.086,18.086,0,0,1,3.207-.8,20.041,20.041,0,0,1,6.327,0,18.088,18.088,0,0,1,3.207.8,14.421,14.421,0,0,1,1.85.8c.127.066.259.129.381.2.291.165.566.337.827.517a7.839,7.839,0,0,1,1.77,1.622,4.794,4.794,0,0,1,.793,1.5,3.913,3.913,0,0,1,.132.5,3.7,3.7,0,0,1,.06.637c0,.055-.016.107-.019.162a4.519,4.519,0,0,1-.127.8A4.566,4.566,0,0,1,55.162,40.5h0c-.07.078-.15.155-.224.233a7.69,7.69,0,0,1-.868.8c-.068.054-.131.114-.2.165l-.155.116-.185-.064a.44.44,0,0,0-.114-.023H34.873Zm-.017,11.713-.144.127-.2.179-.233-.4a3.926,3.926,0,0,1-.361-1.114,16.519,16.519,0,0,1-.263-3.289,3.389,3.389,0,0,1,.2-1.386l.069-.19.067-.184.364.155a1.652,1.652,0,0,1,.362.214h.006l.107.086.03.131a19.872,19.872,0,0,1,.491,5.008v.121l-.073.1A3.046,3.046,0,0,1,34.855,53.438Zm2.806,4.695a10.1,10.1,0,0,1-.793-1.165,4.454,4.454,0,0,1-.684-2.158c0-.2.008-.4.023-.582.01-.106.008-.212.016-.318a20.863,20.863,0,0,0-.646-7.178c-.021-.078-.03-.161-.048-.24-.009-.041-.016-.083-.025-.124a7.015,7.015,0,0,1-.165-1.418c0-.074.006-.143.012-.214l.037-.75.319.2.226.14a7.725,7.725,0,0,0,.988.5c.238.1.487.2.752.293s.506.17.777.245c.187.052.388.1.583.142a22.6,22.6,0,0,0,5.119.555,23.4,23.4,0,0,0,4.511-.421c.209-.041.409-.088.609-.134l.185-.045q.412-.1.793-.22a11.019,11.019,0,0,0,1.321-.491,7.4,7.4,0,0,0,.723-.378c.024-.015.054-.027.078-.042l.544-.336.038.749c.006.07.012.14.012.211a7.031,7.031,0,0,1-.19,1.542c-.018.078-.026.155-.046.233-.13.481-.229.966-.325,1.453a20.836,20.836,0,0,0-.324,5.737c.009.1.006.2.016.307.016.2.024.394.024.592a4.124,4.124,0,0,1-.51,1.833,10.347,10.347,0,0,1-1.362,1.971c-.251.294-.517.585-.793.87q-.388.4-.793.777c-.548.513-1.112,1-1.651,1.44a4.624,4.624,0,0,1-5.721,0,27.231,27.231,0,0,1-2.838-2.636C38.172,58.759,37.906,58.447,37.661,58.133Zm-.794,8.136.793-.8.611-.614.183.155,1.876,1.617.716.618.21.181.086.078-.664.2c-.041.012-.078.028-.123.041a12.394,12.394,0,0,0-2.874,1.316l-.233.148L35.56,67.582Zm-4.95,12.4-.023.353H26.212a1.216,1.216,0,0,1-.984-.5,1.229,1.229,0,0,1-.178-1.1l1.1-3.457A9.015,9.015,0,0,1,27.8,71.194c.137-.155.271-.32.42-.466a3.565,3.565,0,0,1,.4-.328c.21-.155.544-.405,1.077-.8l.522-.382a7.614,7.614,0,0,1,.9-.448,9.392,9.392,0,0,1,3.438-.687h.14l.171.147L36.462,69.6l.179.155-.342.287c-.134.113-.259.238-.388.357-.148.134-.3.263-.44.4s-.238.263-.359.394c-.165.182-.331.364-.485.554a12.287,12.287,0,0,0-2.71,6.916Zm4.272.353.05-.423a8.177,8.177,0,0,1,4.07-6.088c.195-.11.4-.205.605-.3l.431-.194.662,3.34.727,3.665H36.186Zm9.388,0,.727-3.665.662-3.34.43.193c.207.092.412.189.611.3A8.176,8.176,0,0,1,52.07,78.6l.05.423H45.574Zm7.473,0-.033-.342a9.072,9.072,0,0,0-4.558-6.991,8.659,8.659,0,0,0-1.074-.5c-.2-.078-.394-.155-.6-.218l-.112-.023-.069.005a.437.437,0,0,0-.087,0,.55.55,0,0,1-.053.022.278.278,0,0,0-.137.071.926.926,0,0,0-.1.1.261.261,0,0,1-.019.046V71.2h-.033l-.033.166-.792,3.992-.727,3.665h-.949l-.743-3.665L42.1,71.2l0-.009a.492.492,0,0,0-.04-.078.078.078,0,0,1-.036-.028.286.286,0,0,0-.12-.09.9.9,0,0,0-.136-.044.17.17,0,0,1-.05,0l-.019-.038-.166.05c-.2.062-.4.141-.6.219a8.592,8.592,0,0,0-1.068.493,9.075,9.075,0,0,0-4.564,6.991l-.033.342H32.813l.032-.409a11.454,11.454,0,0,1,3.029-6.872c.085-.092.165-.189.254-.278s.2-.179.292-.27a11.76,11.76,0,0,1,.945-.8c.1-.078.193-.155.294-.228.3-.208.607-.395.92-.57.09-.051.183-.1.273-.147a11.33,11.33,0,0,1,3.926-1.223,11.45,11.45,0,0,1,2.744,0,11.318,11.318,0,0,1,3.924,1.223c.092.048.183.1.273.147.311.176.621.361.916.568.1.072.2.155.3.233a11.7,11.7,0,0,1,.945.8c.1.091.2.176.293.27s.168.186.253.277a11.452,11.452,0,0,1,3.029,6.872l.032.409H53.039Zm10.03-.5a1.216,1.216,0,0,1-.983.5H56.412l-.023-.353a12.284,12.284,0,0,0-2.71-6.92c-.155-.19-.318-.372-.485-.554-.12-.131-.233-.267-.358-.393-.141-.141-.294-.27-.441-.4-.13-.118-.254-.243-.388-.357l-.342-.287.179-.155,1.591-1.37.171-.147h.14a9.391,9.391,0,0,1,3.434.685,8.009,8.009,0,0,1,.868.427l.555.409c.536.388.868.639,1.079.8a3.573,3.573,0,0,1,.41.333c.148.148.28.311.416.466a9.038,9.038,0,0,1,1.631,2.709l1.118,3.51a1.23,1.23,0,0,1-.179,1.1ZM53.919,39.933a.645.645,0,0,0,.039.063.475.475,0,0,0,.643,0l.106-.169a.428.428,0,0,0,0-.343A.611.611,0,0,0,54.6,39.3l-.067-.049-.1-.047a.652.652,0,0,0-.155-.019.43.43,0,0,0-.42.275.438.438,0,0,0-.008.357A.6.6,0,0,0,53.919,39.933ZM35.9,37.525a.444.444,0,0,0-.185-.042l-.159.035c-.019.009-.03.021-.047.03a.628.628,0,0,0-.135.085.5.5,0,0,0-.121.327.339.339,0,0,0,.031.155.632.632,0,0,0,.116.187.68.68,0,0,0,.109.065c.012.006.023.012.036.018a.454.454,0,0,0,.508-.1.157.157,0,0,1,.009-.016.6.6,0,0,0,.087-.144.473.473,0,0,0,.038-.179.436.436,0,0,0-.286-.43Zm3.185.9a.466.466,0,0,0,.337-.8l-.012-.012a.143.143,0,0,0-.036-.029l-.126-.067a.74.74,0,0,0-.161-.019.44.44,0,0,0-.324.128.5.5,0,0,0-.134.339.461.461,0,0,0,.131.327.455.455,0,0,0,.319.134Zm6.587-.039a.452.452,0,0,0,.639-.409q0-.009,0-.019a.514.514,0,0,0-.133-.336.428.428,0,0,0-.063-.046l-.12-.064a.74.74,0,0,0-.161-.019.437.437,0,0,0-.311.118l-.016.01a.51.51,0,0,0-.134.339.466.466,0,0,0,.134.329.59.59,0,0,0,.16.093Zm-3.53-.094a.489.489,0,0,0,.326.133.388.388,0,0,0,.333-.132.458.458,0,0,0,.137-.325.479.479,0,0,0-.011-.057.466.466,0,0,0-.454-.43h0a.466.466,0,0,0-.332.138.482.482,0,0,0-.023.636.159.159,0,0,0,.018.033Zm7.069.133a.472.472,0,0,0,.186-.038.6.6,0,0,0,.173-.11.478.478,0,0,0,.121-.321.514.514,0,0,0-.137-.338.476.476,0,0,0-.329-.133.466.466,0,0,0-.095.009l-.106.039a.7.7,0,0,0-.146.1.5.5,0,0,0-.121.326.461.461,0,0,0,.45.462Zm3.054-.136a.594.594,0,0,0,.15.092l.008,0a.448.448,0,0,0,.183.039.46.46,0,0,0,.459-.457.477.477,0,0,0-.135-.348.7.7,0,0,0-.329-.14h0a.478.478,0,0,0-.332.138.493.493,0,0,0-.136.339.466.466,0,0,0,.125.317s0,.008,0,.012Zm-17.9,1.027a.451.451,0,0,0-.322-.135.466.466,0,0,0-.094.01l-.019.007-.089.033a.691.691,0,0,0-.146.1.522.522,0,0,0-.078.138.489.489,0,0,0-.041.186.466.466,0,0,0,.031.166.458.458,0,0,0,.1.162.454.454,0,0,0,.323.138.466.466,0,0,0,.338-.8Zm2.9.777a.481.481,0,0,0,.489-.108.475.475,0,0,0,.131-.329h0a.479.479,0,0,0-.02-.092.452.452,0,0,0-.019-.088h0a.6.6,0,0,0-.108-.171.459.459,0,0,0-.311-.114.535.535,0,0,0-.11.02.5.5,0,0,0-.244.117.514.514,0,0,0-.082.141.377.377,0,0,0-.041.172.48.48,0,0,0,.136.346.451.451,0,0,0,.173.1Zm3.2-.106a.466.466,0,0,0,.661,0,.474.474,0,0,0,.138-.336.709.709,0,0,0-.133-.335.4.4,0,0,0-.064-.047l-.12-.064a.731.731,0,0,0-.155-.019.447.447,0,0,0-.328.129.552.552,0,0,0-.132.336.466.466,0,0,0,.12.311.036.036,0,0,0,.009.017Zm3.705.143a.419.419,0,0,0,.33-.134.466.466,0,0,0,.1-.517v0a.589.589,0,0,0-.108-.17.663.663,0,0,0-.144-.083.466.466,0,0,0-.183-.038.461.461,0,0,0-.326.136.479.479,0,0,0-.092.149.369.369,0,0,0-.041.172.481.481,0,0,0,.136.348.461.461,0,0,0,.321.137Zm3.707-.139A.592.592,0,0,0,48,39.654a.466.466,0,0,0-.466-.472.461.461,0,0,0-.342.155.466.466,0,0,0,.665.649Zm3.374,0a.476.476,0,0,0,.138-.336.466.466,0,0,0-.357-.454.448.448,0,0,0-.108-.023h0a.466.466,0,0,0-.332.139.483.483,0,0,0-.117.245.478.478,0,0,0-.018.092.466.466,0,0,0,.788.332Z" transform="translate(-0.112 -0.004)" fill="#212121" fill-rule="evenodd"/>
</svg>
