<svg xmlns="http://www.w3.org/2000/svg" width="75.487" height="24" viewBox="0 0 75.487 24">
  <g id="PhonePe-Logo.wine_1_" data-name="PhonePe-Logo.wine(1)" transform="translate(3.634 3.634)">
    <g id="g34" transform="translate(-3.634 -3.634)">
      <circle id="ellipse30" cx="9.975" cy="9.975" r="9.975" transform="translate(0 19.415) rotate(-76.714)" fill="#5f259f"/>
      <path id="path32" d="M69.913,26.806V23.184c0-.892-.334-1.337-1.17-1.337a4.419,4.419,0,0,0-.947.111v5.294a.36.36,0,0,1-.334.334H66.179a.36.36,0,0,1-.334-.334V21.067a.485.485,0,0,1,.334-.446,8,8,0,0,1,2.563-.446c2.006,0,3.121,1.059,3.121,3.009v4.124a.36.36,0,0,1-.334.334h-.78A.821.821,0,0,1,69.913,26.806Zm5.015-2.173-.056.5a1.029,1.029,0,0,0,1.17,1.059,3.534,3.534,0,0,0,1.616-.446c.056,0,.111-.056.167-.056a.29.29,0,0,1,.223.111,2.222,2.222,0,0,1,.167.223,1.177,1.177,0,0,1,.223.557.773.773,0,0,1-.39.669,4.4,4.4,0,0,1-2.118.5,3.373,3.373,0,0,1-2.173-.669,2.61,2.61,0,0,1-.892-2.006V22.905c0-1.728,1.115-2.786,3.009-2.786a2.584,2.584,0,0,1,2.9,2.786v1.337a.36.36,0,0,1-.334.334H74.928Zm-.056-1.226H76.99V22.85a1.01,1.01,0,0,0-1.059-1.115.985.985,0,0,0-1.059,1.115Zm14.21,1.226-.056.5a1.029,1.029,0,0,0,1.17,1.059,3.534,3.534,0,0,0,1.616-.446c.056,0,.111-.056.167-.056a.289.289,0,0,1,.223.111,2.221,2.221,0,0,1,.167.223,1.177,1.177,0,0,1,.223.557.773.773,0,0,1-.39.669,4.4,4.4,0,0,1-2.118.5,3.373,3.373,0,0,1-2.173-.669,2.61,2.61,0,0,1-.892-2.006V22.905c0-1.728,1.115-2.786,3.009-2.786a2.584,2.584,0,0,1,2.9,2.786v1.337a.36.36,0,0,1-.334.334H89.083Zm-.056-1.226h2.118V22.85a1.01,1.01,0,0,0-1.059-1.115.985.985,0,0,0-1.059,1.115ZM56.26,27.642h.78a.36.36,0,0,0,.334-.334V23.184c0-1.895-1-3.009-2.675-3.009a4.858,4.858,0,0,0-1.393.223V18.336a.857.857,0,0,0-.836-.836h-.78a.36.36,0,0,0-.334.334v9.474a.36.36,0,0,0,.334.334h1.282a.36.36,0,0,0,.334-.334V22.07a2.83,2.83,0,0,1,.947-.167c.836,0,1.17.39,1.17,1.337v3.622A.894.894,0,0,0,56.26,27.642Zm8.415-4.681v2.062c0,1.728-1.17,2.786-3.121,2.786-1.895,0-3.121-1.059-3.121-2.786V22.961c0-1.728,1.17-2.786,3.121-2.786s3.121,1.059,3.121,2.786Zm-1.95,0a1.025,1.025,0,0,0-1.115-1.115A1,1,0,0,0,60.5,22.961v2.062a1.116,1.116,0,0,0,2.229,0ZM50.3,22.014a2.957,2.957,0,0,1-3.121,3.009A3,3,0,0,1,45.95,24.8v2.508a.36.36,0,0,1-.334.334H44.334A.36.36,0,0,1,44,27.308V18.447A.485.485,0,0,1,44.334,18a8,8,0,0,1,2.563-.446,3.093,3.093,0,0,1,3.4,3.121Zm-2.006-1.449a1.29,1.29,0,0,0-1.449-1.337,2.028,2.028,0,0,0-.836.167v3.678a1.635,1.635,0,0,0,.892.223,1.318,1.318,0,0,0,1.449-1.337V20.565ZM86.3,22.014a2.957,2.957,0,0,1-3.121,3.009A3,3,0,0,1,81.95,24.8v2.508a.36.36,0,0,1-.334.334H80.334A.36.36,0,0,1,80,27.308V18.447A.485.485,0,0,1,80.334,18a8,8,0,0,1,2.563-.446,3.093,3.093,0,0,1,3.4,3.121ZM84.29,20.565a1.29,1.29,0,0,0-1.449-1.337,2.028,2.028,0,0,0-.836.167v3.678a1.635,1.635,0,0,0,.892.223,1.318,1.318,0,0,0,1.449-1.337V20.565Z" transform="translate(-17.441 -9.106)" fill="#5f259f"/>
    </g>
    <path id="path36" d="M18.5,9.565a.738.738,0,0,0-.724-.724H16.436L13.371,5.33A1.129,1.129,0,0,0,12.2,5l-1.059.334a.247.247,0,0,0-.111.39L14.375,8.9H9.3a.263.263,0,0,0-.279.279v.557a.738.738,0,0,0,.724.724h.78v2.675c0,2.006,1.059,3.176,2.842,3.176a3.856,3.856,0,0,0,1.56-.279v1.783a.88.88,0,0,0,.892.892h.78a.36.36,0,0,0,.334-.334V10.4H18.22a.263.263,0,0,0,.279-.279Zm-3.567,4.792a2.656,2.656,0,0,1-1.115.223c-.892,0-1.337-.446-1.337-1.449V10.457h2.452Z" transform="translate(-5.605 -3.802)" fill="#fff"/>
  </g>
</svg>
